<mxfile host="Electron" modified="2024-02-06T01:41:27.325Z" agent="Mozilla/5.0 (Macintosh; Intel Mac OS X 10_15_7) AppleWebKit/537.36 (KHTML, like Gecko) draw.io/23.0.2 Chrome/120.0.6099.109 Electron/28.1.0 Safari/537.36" etag="ZZmPtmUUthiMlnkr3Y6n" version="23.0.2" type="device">
  <diagram id="C5RBs43oDa-KdzZeNtuy" name="Page-1">
    <mxGraphModel dx="1060" dy="1110" grid="1" gridSize="10" guides="1" tooltips="1" connect="1" arrows="1" fold="1" page="1" pageScale="1" pageWidth="827" pageHeight="1169" math="0" shadow="0">
      <root>
        <mxCell id="WIyWlLk6GJQsqaUBKTNV-0" />
        <mxCell id="WIyWlLk6GJQsqaUBKTNV-1" parent="WIyWlLk6GJQsqaUBKTNV-0" />
        <mxCell id="XPkIjIV3tKnvLMuCNbhq-1" style="edgeStyle=orthogonalEdgeStyle;rounded=0;orthogonalLoop=1;jettySize=auto;html=1;exitX=0.5;exitY=0;exitDx=0;exitDy=0;endArrow=none;endFill=0;startArrow=classic;startFill=1;strokeWidth=2;" edge="1" parent="WIyWlLk6GJQsqaUBKTNV-1" source="XPkIjIV3tKnvLMuCNbhq-0">
          <mxGeometry relative="1" as="geometry">
            <mxPoint x="384" y="360" as="targetPoint" />
          </mxGeometry>
        </mxCell>
        <mxCell id="XPkIjIV3tKnvLMuCNbhq-2" value="Record" style="edgeLabel;html=1;align=center;verticalAlign=middle;resizable=0;points=[];" vertex="1" connectable="0" parent="XPkIjIV3tKnvLMuCNbhq-1">
          <mxGeometry x="-0.0194" y="1" relative="1" as="geometry">
            <mxPoint x="-1" as="offset" />
          </mxGeometry>
        </mxCell>
        <mxCell id="XPkIjIV3tKnvLMuCNbhq-16" style="edgeStyle=orthogonalEdgeStyle;shape=connector;rounded=0;orthogonalLoop=1;jettySize=auto;html=1;exitX=0;exitY=0.5;exitDx=0;exitDy=0;entryX=0.5;entryY=0;entryDx=0;entryDy=0;labelBackgroundColor=default;strokeColor=default;strokeWidth=2;align=center;verticalAlign=middle;fontFamily=Helvetica;fontSize=11;fontColor=default;startArrow=none;startFill=0;endArrow=classic;endFill=1;curved=1;" edge="1" parent="WIyWlLk6GJQsqaUBKTNV-1" source="XPkIjIV3tKnvLMuCNbhq-0" target="XPkIjIV3tKnvLMuCNbhq-15">
          <mxGeometry relative="1" as="geometry" />
        </mxCell>
        <mxCell id="XPkIjIV3tKnvLMuCNbhq-23" value="Stop" style="edgeLabel;html=1;align=center;verticalAlign=middle;resizable=0;points=[];fontSize=11;fontFamily=Helvetica;fontColor=default;" vertex="1" connectable="0" parent="XPkIjIV3tKnvLMuCNbhq-16">
          <mxGeometry x="-0.2193" y="22" relative="1" as="geometry">
            <mxPoint x="23" y="8" as="offset" />
          </mxGeometry>
        </mxCell>
        <mxCell id="XPkIjIV3tKnvLMuCNbhq-24" style="edgeStyle=orthogonalEdgeStyle;shape=connector;rounded=0;orthogonalLoop=1;jettySize=auto;html=1;exitX=0.5;exitY=1;exitDx=0;exitDy=0;entryX=0.5;entryY=0;entryDx=0;entryDy=0;labelBackgroundColor=default;strokeColor=default;strokeWidth=2;align=center;verticalAlign=middle;fontFamily=Helvetica;fontSize=11;fontColor=default;startArrow=none;startFill=0;endArrow=classic;endFill=1;" edge="1" parent="WIyWlLk6GJQsqaUBKTNV-1" source="XPkIjIV3tKnvLMuCNbhq-0" target="XPkIjIV3tKnvLMuCNbhq-6">
          <mxGeometry relative="1" as="geometry" />
        </mxCell>
        <mxCell id="XPkIjIV3tKnvLMuCNbhq-25" value="Next" style="edgeLabel;html=1;align=center;verticalAlign=middle;resizable=0;points=[];fontSize=11;fontFamily=Helvetica;fontColor=default;" vertex="1" connectable="0" parent="XPkIjIV3tKnvLMuCNbhq-24">
          <mxGeometry x="-0.2948" y="-1" relative="1" as="geometry">
            <mxPoint as="offset" />
          </mxGeometry>
        </mxCell>
        <mxCell id="XPkIjIV3tKnvLMuCNbhq-0" value="Select Button Binding" style="ellipse;whiteSpace=wrap;html=1;aspect=fixed;strokeWidth=2;" vertex="1" parent="WIyWlLk6GJQsqaUBKTNV-1">
          <mxGeometry x="344" y="440" width="80" height="80" as="geometry" />
        </mxCell>
        <mxCell id="XPkIjIV3tKnvLMuCNbhq-52" style="edgeStyle=orthogonalEdgeStyle;shape=connector;rounded=0;orthogonalLoop=1;jettySize=auto;html=1;exitX=0.5;exitY=1;exitDx=0;exitDy=0;entryX=0.5;entryY=0;entryDx=0;entryDy=0;labelBackgroundColor=default;strokeColor=default;strokeWidth=2;align=center;verticalAlign=middle;fontFamily=Helvetica;fontSize=11;fontColor=default;startArrow=none;startFill=0;endArrow=classic;endFill=1;" edge="1" parent="WIyWlLk6GJQsqaUBKTNV-1" source="XPkIjIV3tKnvLMuCNbhq-3" target="XPkIjIV3tKnvLMuCNbhq-4">
          <mxGeometry relative="1" as="geometry" />
        </mxCell>
        <mxCell id="XPkIjIV3tKnvLMuCNbhq-3" value="Save" style="ellipse;whiteSpace=wrap;html=1;aspect=fixed;strokeWidth=2;" vertex="1" parent="WIyWlLk6GJQsqaUBKTNV-1">
          <mxGeometry x="344" y="930" width="80" height="80" as="geometry" />
        </mxCell>
        <mxCell id="XPkIjIV3tKnvLMuCNbhq-4" value="Exit" style="ellipse;whiteSpace=wrap;html=1;strokeWidth=2;" vertex="1" parent="WIyWlLk6GJQsqaUBKTNV-1">
          <mxGeometry x="344" y="1060" width="80" height="80" as="geometry" />
        </mxCell>
        <mxCell id="XPkIjIV3tKnvLMuCNbhq-29" style="edgeStyle=orthogonalEdgeStyle;shape=connector;rounded=0;orthogonalLoop=1;jettySize=auto;html=1;exitX=0.5;exitY=1;exitDx=0;exitDy=0;entryX=0.5;entryY=0;entryDx=0;entryDy=0;labelBackgroundColor=default;strokeColor=default;strokeWidth=2;align=center;verticalAlign=middle;fontFamily=Helvetica;fontSize=11;fontColor=default;startArrow=none;startFill=0;endArrow=classic;endFill=1;" edge="1" parent="WIyWlLk6GJQsqaUBKTNV-1" source="XPkIjIV3tKnvLMuCNbhq-6" target="XPkIjIV3tKnvLMuCNbhq-26">
          <mxGeometry relative="1" as="geometry" />
        </mxCell>
        <mxCell id="XPkIjIV3tKnvLMuCNbhq-30" value="Next" style="edgeLabel;html=1;align=center;verticalAlign=middle;resizable=0;points=[];fontSize=11;fontFamily=Helvetica;fontColor=default;" vertex="1" connectable="0" parent="XPkIjIV3tKnvLMuCNbhq-29">
          <mxGeometry x="-0.225" y="1" relative="1" as="geometry">
            <mxPoint as="offset" />
          </mxGeometry>
        </mxCell>
        <mxCell id="XPkIjIV3tKnvLMuCNbhq-39" value="Stop" style="edgeStyle=orthogonalEdgeStyle;shape=connector;rounded=0;orthogonalLoop=1;jettySize=auto;html=1;exitX=0;exitY=1;exitDx=0;exitDy=0;labelBackgroundColor=default;strokeColor=default;strokeWidth=2;align=center;verticalAlign=middle;fontFamily=Helvetica;fontSize=11;fontColor=default;startArrow=none;startFill=0;endArrow=none;endFill=0;curved=1;" edge="1" parent="WIyWlLk6GJQsqaUBKTNV-1" source="XPkIjIV3tKnvLMuCNbhq-6">
          <mxGeometry relative="1" as="geometry">
            <mxPoint x="73" y="660" as="targetPoint" />
            <Array as="points">
              <mxPoint x="356" y="650" />
              <mxPoint x="210" y="650" />
              <mxPoint x="210" y="660" />
            </Array>
          </mxGeometry>
        </mxCell>
        <mxCell id="XPkIjIV3tKnvLMuCNbhq-6" value="Frame 0" style="ellipse;whiteSpace=wrap;html=1;aspect=fixed;strokeColor=default;strokeWidth=2;align=center;verticalAlign=middle;fontFamily=Helvetica;fontSize=11;fontColor=default;fillColor=default;" vertex="1" parent="WIyWlLk6GJQsqaUBKTNV-1">
          <mxGeometry x="344" y="560" width="80" height="80" as="geometry" />
        </mxCell>
        <mxCell id="XPkIjIV3tKnvLMuCNbhq-7" style="edgeStyle=orthogonalEdgeStyle;shape=connector;rounded=0;orthogonalLoop=1;jettySize=auto;html=1;exitX=1;exitY=0;exitDx=0;exitDy=0;entryX=1;entryY=1;entryDx=0;entryDy=0;labelBackgroundColor=default;strokeColor=default;strokeWidth=2;align=center;verticalAlign=middle;fontFamily=Helvetica;fontSize=11;fontColor=default;startArrow=classic;startFill=1;endArrow=none;endFill=0;curved=1;" edge="1" parent="WIyWlLk6GJQsqaUBKTNV-1" source="XPkIjIV3tKnvLMuCNbhq-6" target="XPkIjIV3tKnvLMuCNbhq-6">
          <mxGeometry relative="1" as="geometry">
            <Array as="points">
              <mxPoint x="460" y="572" />
              <mxPoint x="460" y="630" />
              <mxPoint x="412" y="630" />
            </Array>
          </mxGeometry>
        </mxCell>
        <mxCell id="XPkIjIV3tKnvLMuCNbhq-8" value="Move Servo" style="edgeLabel;html=1;align=center;verticalAlign=middle;resizable=0;points=[];fontSize=11;fontFamily=Helvetica;fontColor=default;" vertex="1" connectable="0" parent="XPkIjIV3tKnvLMuCNbhq-7">
          <mxGeometry x="0.0167" y="2" relative="1" as="geometry">
            <mxPoint as="offset" />
          </mxGeometry>
        </mxCell>
        <mxCell id="XPkIjIV3tKnvLMuCNbhq-10" style="edgeStyle=orthogonalEdgeStyle;shape=connector;rounded=0;orthogonalLoop=1;jettySize=auto;html=1;exitX=0;exitY=0;exitDx=0;exitDy=0;entryX=0;entryY=1;entryDx=0;entryDy=0;labelBackgroundColor=default;strokeColor=default;strokeWidth=2;align=center;verticalAlign=middle;fontFamily=Helvetica;fontSize=11;fontColor=default;startArrow=classic;startFill=1;endArrow=none;endFill=0;curved=1;" edge="1" parent="WIyWlLk6GJQsqaUBKTNV-1" source="XPkIjIV3tKnvLMuCNbhq-6" target="XPkIjIV3tKnvLMuCNbhq-6">
          <mxGeometry relative="1" as="geometry">
            <mxPoint x="343.9985714285715" y="571" as="sourcePoint" />
            <mxPoint x="343.9985714285715" y="627" as="targetPoint" />
            <Array as="points">
              <mxPoint x="296" y="572" />
              <mxPoint x="296" y="629" />
              <mxPoint x="344" y="629" />
            </Array>
          </mxGeometry>
        </mxCell>
        <mxCell id="XPkIjIV3tKnvLMuCNbhq-11" value="Set Frame Time" style="edgeLabel;html=1;align=center;verticalAlign=middle;resizable=0;points=[];fontSize=11;fontFamily=Helvetica;fontColor=default;" vertex="1" connectable="0" parent="XPkIjIV3tKnvLMuCNbhq-10">
          <mxGeometry x="0.0167" y="2" relative="1" as="geometry">
            <mxPoint as="offset" />
          </mxGeometry>
        </mxCell>
        <mxCell id="XPkIjIV3tKnvLMuCNbhq-17" style="edgeStyle=orthogonalEdgeStyle;shape=connector;rounded=0;orthogonalLoop=1;jettySize=auto;html=1;exitX=0.5;exitY=1;exitDx=0;exitDy=0;entryX=0;entryY=0.5;entryDx=0;entryDy=0;labelBackgroundColor=default;strokeColor=default;strokeWidth=2;align=center;verticalAlign=middle;fontFamily=Helvetica;fontSize=11;fontColor=default;startArrow=none;startFill=0;endArrow=classic;endFill=1;curved=1;" edge="1" parent="WIyWlLk6GJQsqaUBKTNV-1" source="XPkIjIV3tKnvLMuCNbhq-15" target="XPkIjIV3tKnvLMuCNbhq-4">
          <mxGeometry relative="1" as="geometry" />
        </mxCell>
        <mxCell id="XPkIjIV3tKnvLMuCNbhq-18" value="Yes" style="edgeLabel;html=1;align=center;verticalAlign=middle;resizable=0;points=[];fontSize=11;fontFamily=Helvetica;fontColor=default;" vertex="1" connectable="0" parent="XPkIjIV3tKnvLMuCNbhq-17">
          <mxGeometry x="-0.2074" y="34" relative="1" as="geometry">
            <mxPoint x="16" y="-11" as="offset" />
          </mxGeometry>
        </mxCell>
        <mxCell id="XPkIjIV3tKnvLMuCNbhq-20" style="edgeStyle=orthogonalEdgeStyle;shape=connector;rounded=0;orthogonalLoop=1;jettySize=auto;html=1;exitX=1;exitY=0.5;exitDx=0;exitDy=0;labelBackgroundColor=default;strokeColor=default;strokeWidth=2;align=center;verticalAlign=middle;fontFamily=Helvetica;fontSize=11;fontColor=default;startArrow=none;startFill=0;endArrow=classic;endFill=1;entryX=0;entryY=0.5;entryDx=0;entryDy=0;" edge="1" parent="WIyWlLk6GJQsqaUBKTNV-1" source="XPkIjIV3tKnvLMuCNbhq-15" target="XPkIjIV3tKnvLMuCNbhq-22">
          <mxGeometry relative="1" as="geometry">
            <mxPoint x="230" y="690" as="targetPoint" />
          </mxGeometry>
        </mxCell>
        <mxCell id="XPkIjIV3tKnvLMuCNbhq-21" value="No" style="edgeLabel;html=1;align=center;verticalAlign=middle;resizable=0;points=[];fontSize=11;fontFamily=Helvetica;fontColor=default;" vertex="1" connectable="0" parent="XPkIjIV3tKnvLMuCNbhq-20">
          <mxGeometry x="-0.1801" y="-1" relative="1" as="geometry">
            <mxPoint as="offset" />
          </mxGeometry>
        </mxCell>
        <mxCell id="XPkIjIV3tKnvLMuCNbhq-15" value="Comfirm" style="ellipse;whiteSpace=wrap;html=1;aspect=fixed;strokeColor=default;strokeWidth=2;align=center;verticalAlign=middle;fontFamily=Helvetica;fontSize=11;fontColor=default;fillColor=default;" vertex="1" parent="WIyWlLk6GJQsqaUBKTNV-1">
          <mxGeometry x="30" y="710" width="80" height="80" as="geometry" />
        </mxCell>
        <mxCell id="XPkIjIV3tKnvLMuCNbhq-22" value="Return to caller" style="rounded=0;whiteSpace=wrap;html=1;strokeColor=default;strokeWidth=2;align=center;verticalAlign=middle;fontFamily=Helvetica;fontSize=11;fontColor=default;fillColor=default;" vertex="1" parent="WIyWlLk6GJQsqaUBKTNV-1">
          <mxGeometry x="180" y="730" width="60" height="40" as="geometry" />
        </mxCell>
        <mxCell id="XPkIjIV3tKnvLMuCNbhq-45" style="edgeStyle=orthogonalEdgeStyle;shape=connector;rounded=0;orthogonalLoop=1;jettySize=auto;html=1;exitX=0.5;exitY=1;exitDx=0;exitDy=0;labelBackgroundColor=default;strokeColor=default;strokeWidth=2;align=center;verticalAlign=middle;fontFamily=Helvetica;fontSize=11;fontColor=default;startArrow=none;startFill=0;endArrow=classic;endFill=1;dashed=1;dashPattern=1 1;entryX=0.5;entryY=0;entryDx=0;entryDy=0;" edge="1" parent="WIyWlLk6GJQsqaUBKTNV-1" source="XPkIjIV3tKnvLMuCNbhq-26" target="XPkIjIV3tKnvLMuCNbhq-46">
          <mxGeometry relative="1" as="geometry">
            <mxPoint x="383.66666666666674" y="800" as="targetPoint" />
          </mxGeometry>
        </mxCell>
        <mxCell id="XPkIjIV3tKnvLMuCNbhq-47" value="Next" style="edgeLabel;html=1;align=center;verticalAlign=middle;resizable=0;points=[];fontSize=11;fontFamily=Helvetica;fontColor=default;" vertex="1" connectable="0" parent="XPkIjIV3tKnvLMuCNbhq-45">
          <mxGeometry x="-0.32" y="-1" relative="1" as="geometry">
            <mxPoint as="offset" />
          </mxGeometry>
        </mxCell>
        <mxCell id="XPkIjIV3tKnvLMuCNbhq-26" value="Link Frame" style="rounded=0;whiteSpace=wrap;html=1;strokeColor=default;strokeWidth=2;align=center;verticalAlign=middle;fontFamily=Helvetica;fontSize=11;fontColor=default;fillColor=default;" vertex="1" parent="WIyWlLk6GJQsqaUBKTNV-1">
          <mxGeometry x="354" y="680" width="60" height="40" as="geometry" />
        </mxCell>
        <mxCell id="XPkIjIV3tKnvLMuCNbhq-49" style="edgeStyle=orthogonalEdgeStyle;shape=connector;rounded=0;orthogonalLoop=1;jettySize=auto;html=1;labelBackgroundColor=default;strokeColor=default;strokeWidth=2;align=center;verticalAlign=middle;fontFamily=Helvetica;fontSize=11;fontColor=default;startArrow=none;startFill=0;endArrow=classic;endFill=1;" edge="1" parent="WIyWlLk6GJQsqaUBKTNV-1" source="XPkIjIV3tKnvLMuCNbhq-46" target="XPkIjIV3tKnvLMuCNbhq-3">
          <mxGeometry relative="1" as="geometry" />
        </mxCell>
        <mxCell id="XPkIjIV3tKnvLMuCNbhq-50" value="Done" style="edgeLabel;html=1;align=center;verticalAlign=middle;resizable=0;points=[];fontSize=11;fontFamily=Helvetica;fontColor=default;" vertex="1" connectable="0" parent="XPkIjIV3tKnvLMuCNbhq-49">
          <mxGeometry x="-0.225" relative="1" as="geometry">
            <mxPoint as="offset" />
          </mxGeometry>
        </mxCell>
        <mxCell id="XPkIjIV3tKnvLMuCNbhq-46" value="Frame N" style="ellipse;whiteSpace=wrap;html=1;aspect=fixed;strokeColor=default;strokeWidth=2;align=center;verticalAlign=middle;fontFamily=Helvetica;fontSize=11;fontColor=default;fillColor=default;dashed=1;" vertex="1" parent="WIyWlLk6GJQsqaUBKTNV-1">
          <mxGeometry x="344" y="770" width="80" height="80" as="geometry" />
        </mxCell>
        <mxCell id="XPkIjIV3tKnvLMuCNbhq-53" value="&lt;h1&gt;Overview&lt;/h1&gt;&lt;p&gt;The FrameRecorder is a state machine that generates a ServoAnimation.&lt;/p&gt;&lt;p&gt;The entry point displays a screen that requests a button binding for the user. This index is stored and will be used as the index to store into EEPROM/SPIFFS&lt;/p&gt;&lt;p&gt;Once a keybinding is selected, the user is asked to edit or overwrite&lt;/p&gt;&lt;p&gt;Overwrite:&lt;/p&gt;&lt;p&gt;&lt;span style=&quot;white-space: pre;&quot;&gt;&#x9;&lt;/span&gt;A ServoAnimation object and the first Keyframe are created&lt;/p&gt;&lt;p&gt;Edit:&lt;/p&gt;&lt;p&gt;&lt;span style=&quot;white-space: pre;&quot;&gt;&#x9;&lt;/span&gt;Edit flag is set and the ServoAnimation and first Keyframe are parsed. The servos are set to the correct location and the keyframe time is displayed&lt;/p&gt;&lt;p&gt;The user moves the servos to the desired positions&lt;/p&gt;&lt;p&gt;The user selects a frame time using the D-Pad&lt;/p&gt;&lt;p&gt;The user hits &quot;next&quot; and a new keyframe is created/advanced&lt;/p&gt;&lt;p&gt;This process continues until the user hits &quot;done&quot;&lt;/p&gt;&lt;p&gt;The ServoAnimation is saved in EEPROM/SPIFFS&lt;/p&gt;" style="text;html=1;strokeColor=none;fillColor=none;spacing=5;spacingTop=-20;whiteSpace=wrap;overflow=hidden;rounded=0;fontSize=11;fontFamily=Helvetica;fontColor=default;" vertex="1" parent="WIyWlLk6GJQsqaUBKTNV-1">
          <mxGeometry x="20" y="10" width="780" height="310" as="geometry" />
        </mxCell>
      </root>
    </mxGraphModel>
  </diagram>
</mxfile>
